<svg id="visual" viewBox="0 0 900 100" width="900" height="100" xmlns="http://www.w3.org/2000/svg" xmlns:xlink="http://www.w3.org/1999/xlink" version="1.1"><path d="M0 35L21.5 32.5C43 30 86 25 128.8 23.3C171.7 21.7 214.3 23.3 257.2 25C300 26.7 343 28.3 385.8 28.7C428.7 29 471.3 28 514.2 30.3C557 32.7 600 38.3 642.8 41.5C685.7 44.7 728.3 45.3 771.2 41.7C814 38 857 30 878.5 26L900 22L900 101L878.5 101C857 101 814 101 771.2 101C728.3 101 685.7 101 642.8 101C600 101 557 101 514.2 101C471.3 101 428.7 101 385.8 101C343 101 300 101 257.2 101C214.3 101 171.7 101 128.8 101C86 101 43 101 21.5 101L0 101Z" fill="#fa7268"></path><path d="M0 43L21.5 45.2C43 47.3 86 51.7 128.8 51C171.7 50.3 214.3 44.7 257.2 40.7C300 36.7 343 34.3 385.8 35.3C428.7 36.3 471.3 40.7 514.2 42C557 43.3 600 41.7 642.8 44C685.7 46.3 728.3 52.7 771.2 54.2C814 55.7 857 52.3 878.5 50.7L900 49L900 101L878.5 101C857 101 814 101 771.2 101C728.3 101 685.7 101 642.8 101C600 101 557 101 514.2 101C471.3 101 428.7 101 385.8 101C343 101 300 101 257.2 101C214.3 101 171.7 101 128.8 101C86 101 43 101 21.5 101L0 101Z" fill="#ef5f67"></path><path d="M0 68L21.5 66.3C43 64.7 86 61.3 128.8 60.3C171.7 59.3 214.3 60.7 257.2 59C300 57.3 343 52.7 385.8 52.3C428.7 52 471.3 56 514.2 58.3C557 60.7 600 61.3 642.8 59C685.7 56.7 728.3 51.3 771.2 52.3C814 53.3 857 60.7 878.5 64.3L900 68L900 101L878.5 101C857 101 814 101 771.2 101C728.3 101 685.7 101 642.8 101C600 101 557 101 514.2 101C471.3 101 428.7 101 385.8 101C343 101 300 101 257.2 101C214.3 101 171.7 101 128.8 101C86 101 43 101 21.5 101L0 101Z" fill="#e34c67"></path><path d="M0 66L21.5 66.7C43 67.3 86 68.7 128.8 69.8C171.7 71 214.3 72 257.2 71.3C300 70.7 343 68.3 385.8 66.3C428.7 64.3 471.3 62.7 514.2 63.3C557 64 600 67 642.8 69.5C685.7 72 728.3 74 771.2 73C814 72 857 68 878.5 66L900 64L900 101L878.5 101C857 101 814 101 771.2 101C728.3 101 685.7 101 642.8 101C600 101 557 101 514.2 101C471.3 101 428.7 101 385.8 101C343 101 300 101 257.2 101C214.3 101 171.7 101 128.8 101C86 101 43 101 21.5 101L0 101Z" fill="#d53867"></path><path d="M0 83L21.5 82.2C43 81.3 86 79.7 128.8 80.8C171.7 82 214.3 86 257.2 87C300 88 343 86 385.8 84.8C428.7 83.7 471.3 83.3 514.2 83.8C557 84.3 600 85.7 642.8 85C685.7 84.3 728.3 81.7 771.2 81.2C814 80.7 857 82.3 878.5 83.2L900 84L900 101L878.5 101C857 101 814 101 771.2 101C728.3 101 685.7 101 642.8 101C600 101 557 101 514.2 101C471.3 101 428.7 101 385.8 101C343 101 300 101 257.2 101C214.3 101 171.7 101 128.8 101C86 101 43 101 21.5 101L0 101Z" fill="#c62368"></path></svg>