<svg id="visual" viewBox="0 0 900 300" width="900" height="300" xmlns="http://www.w3.org/2000/svg" xmlns:xlink="http://www.w3.org/1999/xlink" version="1.1"><path d="M0 120L21.5 115.3C43 110.7 86 101.3 128.8 103.5C171.7 105.7 214.3 119.3 257.2 126.8C300 134.3 343 135.7 385.8 129.3C428.7 123 471.3 109 514.2 99.8C557 90.7 600 86.3 642.8 89C685.7 91.7 728.3 101.3 771.2 106.2C814 111 857 111 878.5 111L900 111L900 301L878.5 301C857 301 814 301 771.2 301C728.3 301 685.7 301 642.8 301C600 301 557 301 514.2 301C471.3 301 428.7 301 385.8 301C343 301 300 301 257.2 301C214.3 301 171.7 301 128.8 301C86 301 43 301 21.5 301L0 301Z" fill="#fa7268"></path><path d="M0 120L21.5 116.3C43 112.7 86 105.3 128.8 100.8C171.7 96.3 214.3 94.7 257.2 97.3C300 100 343 107 385.8 111.2C428.7 115.3 471.3 116.7 514.2 122.7C557 128.7 600 139.3 642.8 141.3C685.7 143.3 728.3 136.7 771.2 129C814 121.3 857 112.7 878.5 108.3L900 104L900 301L878.5 301C857 301 814 301 771.2 301C728.3 301 685.7 301 642.8 301C600 301 557 301 514.2 301C471.3 301 428.7 301 385.8 301C343 301 300 301 257.2 301C214.3 301 171.7 301 128.8 301C86 301 43 301 21.5 301L0 301Z" fill="#ef5f67"></path><path d="M0 168L21.5 174.7C43 181.3 86 194.7 128.8 190.2C171.7 185.7 214.3 163.3 257.2 161.7C300 160 343 179 385.8 178.8C428.7 178.7 471.3 159.3 514.2 159C557 158.7 600 177.3 642.8 183.7C685.7 190 728.3 184 771.2 182.7C814 181.3 857 184.7 878.5 186.3L900 188L900 301L878.5 301C857 301 814 301 771.2 301C728.3 301 685.7 301 642.8 301C600 301 557 301 514.2 301C471.3 301 428.7 301 385.8 301C343 301 300 301 257.2 301C214.3 301 171.7 301 128.8 301C86 301 43 301 21.5 301L0 301Z" fill="#e34c67"></path><path d="M0 182L21.5 190.8C43 199.7 86 217.3 128.8 219.7C171.7 222 214.3 209 257.2 201.5C300 194 343 192 385.8 196.7C428.7 201.3 471.3 212.7 514.2 217.5C557 222.3 600 220.7 642.8 218.7C685.7 216.7 728.3 214.3 771.2 213.8C814 213.3 857 214.7 878.5 215.3L900 216L900 301L878.5 301C857 301 814 301 771.2 301C728.3 301 685.7 301 642.8 301C600 301 557 301 514.2 301C471.3 301 428.7 301 385.8 301C343 301 300 301 257.2 301C214.3 301 171.7 301 128.8 301C86 301 43 301 21.5 301L0 301Z" fill="#d53867"></path><path d="M0 238L21.5 236.3C43 234.7 86 231.3 128.8 234.3C171.7 237.3 214.3 246.7 257.2 254.2C300 261.7 343 267.3 385.8 263.7C428.7 260 471.3 247 514.2 246C557 245 600 256 642.8 255.8C685.7 255.7 728.3 244.3 771.2 242.3C814 240.3 857 247.7 878.5 251.3L900 255L900 301L878.5 301C857 301 814 301 771.2 301C728.3 301 685.7 301 642.8 301C600 301 557 301 514.2 301C471.3 301 428.7 301 385.8 301C343 301 300 301 257.2 301C214.3 301 171.7 301 128.8 301C86 301 43 301 21.5 301L0 301Z" fill="#c62368"></path></svg>