<svg id="visual" viewBox="0 0 960 200" width="960" height="200" xmlns="http://www.w3.org/2000/svg" xmlns:xlink="http://www.w3.org/1999/xlink" version="1.1"><path d="M0 56L22.8 64.8C45.7 73.7 91.3 91.3 137 101C182.7 110.7 228.3 112.3 274 111.7C319.7 111 365.3 108 411.2 102.5C457 97 503 89 548.8 92.8C594.7 96.7 640.3 112.3 686 111.2C731.7 110 777.3 92 823 89.8C868.7 87.7 914.3 101.3 937.2 108.2L960 115L960 201L937.2 201C914.3 201 868.7 201 823 201C777.3 201 731.7 201 686 201C640.3 201 594.7 201 548.8 201C503 201 457 201 411.2 201C365.3 201 319.7 201 274 201C228.3 201 182.7 201 137 201C91.3 201 45.7 201 22.8 201L0 201Z" fill="#3B4252" stroke-linecap="round" stroke-linejoin="miter"></path></svg>