<svg id="visual" viewBox="0 0 900 600" width="900" height="600" xmlns="http://www.w3.org/2000/svg" xmlns:xlink="http://www.w3.org/1999/xlink" version="1.1"><path d="M0 450L21.5 440.7C43 431.3 86 412.7 128.8 409C171.7 405.3 214.3 416.7 257.2 425.3C300 434 343 440 385.8 441.8C428.7 443.7 471.3 441.3 514.2 447.3C557 453.3 600 467.7 642.8 475C685.7 482.3 728.3 482.7 771.2 476.7C814 470.7 857 458.3 878.5 452.2L900 446L900 601L878.5 601C857 601 814 601 771.2 601C728.3 601 685.7 601 642.8 601C600 601 557 601 514.2 601C471.3 601 428.7 601 385.8 601C343 601 300 601 257.2 601C214.3 601 171.7 601 128.8 601C86 601 43 601 21.5 601L0 601Z" fill="#3B4252" stroke-linecap="round" stroke-linejoin="miter"></path></svg>